<mxfile host="app.diagrams.net" agent="Mozilla/5.0 (Windows NT 10.0; Win64; x64) AppleWebKit/537.36 (KHTML, like Gecko) Chrome/133.0.0.0 Safari/537.36" version="26.0.14">
  <diagram name="Page-1" id="_oa3yF-_nfbRzwI-3MNB">
    <mxGraphModel dx="1259" dy="1755" grid="1" gridSize="10" guides="1" tooltips="1" connect="1" arrows="1" fold="1" page="1" pageScale="1" pageWidth="850" pageHeight="1100" math="0" shadow="0">
      <root>
        <mxCell id="0" />
        <mxCell id="1" parent="0" />
        <mxCell id="-kNMf-nXk1HDoBk_w1mp-1" value="&lt;b&gt;AWS Account&lt;/b&gt;" style="points=[[0,0],[0.25,0],[0.5,0],[0.75,0],[1,0],[1,0.25],[1,0.5],[1,0.75],[1,1],[0.75,1],[0.5,1],[0.25,1],[0,1],[0,0.75],[0,0.5],[0,0.25]];outlineConnect=0;html=1;whiteSpace=wrap;fontSize=12;fontStyle=0;container=1;pointerEvents=0;collapsible=0;recursiveResize=0;shape=mxgraph.aws4.group;grIcon=mxgraph.aws4.group_account;verticalAlign=top;align=left;spacingLeft=30;dashed=0;strokeWidth=2;fillColor=#f5f5f5;gradientColor=#b3b3b3;strokeColor=#FF0000;" parent="1" vertex="1">
          <mxGeometry x="80" width="820" height="990" as="geometry" />
        </mxCell>
        <mxCell id="-kNMf-nXk1HDoBk_w1mp-2" value="&lt;b&gt;&lt;font style=&quot;color: rgb(51, 51, 255);&quot;&gt;expense-dev&lt;/font&gt;&lt;/b&gt;" style="points=[[0,0],[0.25,0],[0.5,0],[0.75,0],[1,0],[1,0.25],[1,0.5],[1,0.75],[1,1],[0.75,1],[0.5,1],[0.25,1],[0,1],[0,0.75],[0,0.5],[0,0.25]];outlineConnect=0;gradientColor=none;html=1;whiteSpace=wrap;fontSize=12;fontStyle=0;container=1;pointerEvents=0;collapsible=0;recursiveResize=0;shape=mxgraph.aws4.group;grIcon=mxgraph.aws4.group_vpc2;strokeColor=#8C4FFF;fillColor=none;verticalAlign=top;align=left;spacingLeft=30;fontColor=#AAB7B8;dashed=0;" parent="-kNMf-nXk1HDoBk_w1mp-1" vertex="1">
          <mxGeometry x="40" y="120" width="600" height="830" as="geometry" />
        </mxCell>
        <mxCell id="-kNMf-nXk1HDoBk_w1mp-3" value="" style="rounded=1;arcSize=10;dashed=1;strokeColor=#F59D56;fillColor=none;gradientColor=none;dashPattern=8 4;strokeWidth=2;" parent="-kNMf-nXk1HDoBk_w1mp-2" vertex="1">
          <mxGeometry x="40" y="40" width="199.5" height="760" as="geometry" />
        </mxCell>
        <mxCell id="-kNMf-nXk1HDoBk_w1mp-4" value="" style="rounded=1;arcSize=10;dashed=1;strokeColor=#184AFF;fillColor=none;gradientColor=none;dashPattern=8 4;strokeWidth=2;" parent="-kNMf-nXk1HDoBk_w1mp-2" vertex="1">
          <mxGeometry x="360" y="40" width="199.5" height="760" as="geometry" />
        </mxCell>
        <mxCell id="-kNMf-nXk1HDoBk_w1mp-5" value="&lt;b&gt;Public subnet&lt;/b&gt;" style="points=[[0,0],[0.25,0],[0.5,0],[0.75,0],[1,0],[1,0.25],[1,0.5],[1,0.75],[1,1],[0.75,1],[0.5,1],[0.25,1],[0,1],[0,0.75],[0,0.5],[0,0.25]];outlineConnect=0;gradientColor=#97d077;html=1;whiteSpace=wrap;fontSize=12;fontStyle=0;container=1;pointerEvents=0;collapsible=0;recursiveResize=0;shape=mxgraph.aws4.group;grIcon=mxgraph.aws4.group_security_group;grStroke=0;strokeColor=#82b366;fillColor=#d5e8d4;verticalAlign=top;align=left;spacingLeft=30;dashed=0;" parent="-kNMf-nXk1HDoBk_w1mp-2" vertex="1">
          <mxGeometry x="74.75" y="80" width="445.25" height="160" as="geometry" />
        </mxCell>
        <mxCell id="YYC_tpVuf_u4fxhuyksU-6" value="" style="rounded=1;whiteSpace=wrap;html=1;" parent="-kNMf-nXk1HDoBk_w1mp-5" vertex="1">
          <mxGeometry x="135.61" y="15" width="178.28" height="110" as="geometry" />
        </mxCell>
        <mxCell id="YYC_tpVuf_u4fxhuyksU-1" value="" style="rounded=0;whiteSpace=wrap;html=1;" parent="-kNMf-nXk1HDoBk_w1mp-5" vertex="1">
          <mxGeometry x="164.75" y="40" width="120" height="60" as="geometry" />
        </mxCell>
        <mxCell id="YYC_tpVuf_u4fxhuyksU-2" value="" style="sketch=0;points=[[0,0,0],[0.25,0,0],[0.5,0,0],[0.75,0,0],[1,0,0],[0,1,0],[0.25,1,0],[0.5,1,0],[0.75,1,0],[1,1,0],[0,0.25,0],[0,0.5,0],[0,0.75,0],[1,0.25,0],[1,0.5,0],[1,0.75,0]];outlineConnect=0;fontColor=#232F3E;fillColor=#ED7100;strokeColor=#ffffff;dashed=0;verticalLabelPosition=bottom;verticalAlign=top;align=center;html=1;fontSize=12;fontStyle=0;aspect=fixed;shape=mxgraph.aws4.resourceIcon;resIcon=mxgraph.aws4.ec2;" parent="-kNMf-nXk1HDoBk_w1mp-5" vertex="1">
          <mxGeometry x="185.25" y="55" width="30" height="30" as="geometry" />
        </mxCell>
        <mxCell id="YYC_tpVuf_u4fxhuyksU-3" value="" style="sketch=0;points=[[0,0,0],[0.25,0,0],[0.5,0,0],[0.75,0,0],[1,0,0],[0,1,0],[0.25,1,0],[0.5,1,0],[0.75,1,0],[1,1,0],[0,0.25,0],[0,0.5,0],[0,0.75,0],[1,0.25,0],[1,0.5,0],[1,0.75,0]];outlineConnect=0;fontColor=#232F3E;fillColor=#ED7100;strokeColor=#ffffff;dashed=0;verticalLabelPosition=bottom;verticalAlign=top;align=center;html=1;fontSize=12;fontStyle=0;aspect=fixed;shape=mxgraph.aws4.resourceIcon;resIcon=mxgraph.aws4.ec2;" parent="-kNMf-nXk1HDoBk_w1mp-5" vertex="1">
          <mxGeometry x="235.25" y="55" width="30" height="30" as="geometry" />
        </mxCell>
        <mxCell id="YYC_tpVuf_u4fxhuyksU-4" value="" style="sketch=0;aspect=fixed;pointerEvents=1;shadow=0;dashed=0;html=1;strokeColor=none;labelPosition=center;verticalLabelPosition=bottom;verticalAlign=top;align=center;fillColor=#00188D;shape=mxgraph.mscae.enterprise.lock_unlocked" parent="-kNMf-nXk1HDoBk_w1mp-5" vertex="1">
          <mxGeometry x="166.75" y="55" width="18.5" height="25" as="geometry" />
        </mxCell>
        <mxCell id="YYC_tpVuf_u4fxhuyksU-5" value="" style="sketch=0;aspect=fixed;pointerEvents=1;shadow=0;dashed=0;html=1;strokeColor=none;labelPosition=center;verticalLabelPosition=bottom;verticalAlign=top;align=center;fillColor=#00188D;shape=mxgraph.mscae.enterprise.lock_unlocked" parent="-kNMf-nXk1HDoBk_w1mp-5" vertex="1">
          <mxGeometry x="265.25" y="55" width="18.5" height="25" as="geometry" />
        </mxCell>
        <mxCell id="YYC_tpVuf_u4fxhuyksU-7" value="" style="sketch=0;outlineConnect=0;fontColor=#232F3E;gradientColor=none;fillColor=#ED7100;strokeColor=none;dashed=0;verticalLabelPosition=bottom;verticalAlign=top;align=center;html=1;fontSize=12;fontStyle=0;aspect=fixed;pointerEvents=1;shape=mxgraph.aws4.auto_scaling2;" parent="-kNMf-nXk1HDoBk_w1mp-5" vertex="1">
          <mxGeometry x="116.75" y="85" width="48" height="48" as="geometry" />
        </mxCell>
        <mxCell id="YYC_tpVuf_u4fxhuyksU-17" value="&lt;b&gt;&lt;font style=&quot;font-size: 14px; color: rgb(153, 51, 255);&quot; face=&quot;Comic Sans MS&quot;&gt;Frontend TG&lt;/font&gt;&lt;/b&gt;" style="text;html=1;align=center;verticalAlign=middle;resizable=0;points=[];autosize=1;strokeColor=none;fillColor=none;" parent="-kNMf-nXk1HDoBk_w1mp-5" vertex="1">
          <mxGeometry x="215.25" y="10" width="110" height="30" as="geometry" />
        </mxCell>
        <mxCell id="YYC_tpVuf_u4fxhuyksU-23" value="&lt;b&gt;http:80&lt;/b&gt;" style="text;html=1;align=center;verticalAlign=middle;resizable=0;points=[];autosize=1;strokeColor=none;fillColor=none;" parent="-kNMf-nXk1HDoBk_w1mp-5" vertex="1">
          <mxGeometry x="194.75" y="80" width="60" height="30" as="geometry" />
        </mxCell>
        <mxCell id="-kNMf-nXk1HDoBk_w1mp-6" value="&lt;b&gt;Private Subnet&lt;/b&gt;" style="points=[[0,0],[0.25,0],[0.5,0],[0.75,0],[1,0],[1,0.25],[1,0.5],[1,0.75],[1,1],[0.75,1],[0.5,1],[0.25,1],[0,1],[0,0.75],[0,0.5],[0,0.25]];outlineConnect=0;gradientColor=#7ea6e0;html=1;whiteSpace=wrap;fontSize=12;fontStyle=0;container=1;pointerEvents=0;collapsible=0;recursiveResize=0;shape=mxgraph.aws4.group;grIcon=mxgraph.aws4.group_security_group;grStroke=0;strokeColor=#6c8ebf;fillColor=#dae8fc;verticalAlign=top;align=left;spacingLeft=30;dashed=0;" parent="-kNMf-nXk1HDoBk_w1mp-2" vertex="1">
          <mxGeometry x="77.38" y="360" width="445.25" height="160" as="geometry" />
        </mxCell>
        <mxCell id="Ft64ByeWx-oR6YxNVYhW-5" value="" style="rounded=1;whiteSpace=wrap;html=1;" parent="-kNMf-nXk1HDoBk_w1mp-6" vertex="1">
          <mxGeometry x="130.85999999999999" y="22.5" width="178.28" height="110" as="geometry" />
        </mxCell>
        <mxCell id="-kNMf-nXk1HDoBk_w1mp-57" value="" style="rounded=0;whiteSpace=wrap;html=1;" parent="-kNMf-nXk1HDoBk_w1mp-6" vertex="1">
          <mxGeometry x="160" y="50" width="120" height="60" as="geometry" />
        </mxCell>
        <mxCell id="-kNMf-nXk1HDoBk_w1mp-58" value="" style="sketch=0;points=[[0,0,0],[0.25,0,0],[0.5,0,0],[0.75,0,0],[1,0,0],[0,1,0],[0.25,1,0],[0.5,1,0],[0.75,1,0],[1,1,0],[0,0.25,0],[0,0.5,0],[0,0.75,0],[1,0.25,0],[1,0.5,0],[1,0.75,0]];outlineConnect=0;fontColor=#232F3E;fillColor=#ED7100;strokeColor=#ffffff;dashed=0;verticalLabelPosition=bottom;verticalAlign=top;align=center;html=1;fontSize=12;fontStyle=0;aspect=fixed;shape=mxgraph.aws4.resourceIcon;resIcon=mxgraph.aws4.ec2;" parent="-kNMf-nXk1HDoBk_w1mp-6" vertex="1">
          <mxGeometry x="176.72000000000003" y="65" width="30" height="30" as="geometry" />
        </mxCell>
        <mxCell id="-kNMf-nXk1HDoBk_w1mp-59" value="" style="sketch=0;points=[[0,0,0],[0.25,0,0],[0.5,0,0],[0.75,0,0],[1,0,0],[0,1,0],[0.25,1,0],[0.5,1,0],[0.75,1,0],[1,1,0],[0,0.25,0],[0,0.5,0],[0,0.75,0],[1,0.25,0],[1,0.5,0],[1,0.75,0]];outlineConnect=0;fontColor=#232F3E;fillColor=#ED7100;strokeColor=#ffffff;dashed=0;verticalLabelPosition=bottom;verticalAlign=top;align=center;html=1;fontSize=12;fontStyle=0;aspect=fixed;shape=mxgraph.aws4.resourceIcon;resIcon=mxgraph.aws4.ec2;" parent="-kNMf-nXk1HDoBk_w1mp-6" vertex="1">
          <mxGeometry x="232.62" y="65" width="30" height="30" as="geometry" />
        </mxCell>
        <mxCell id="Ft64ByeWx-oR6YxNVYhW-2" value="" style="sketch=0;aspect=fixed;pointerEvents=1;shadow=0;dashed=0;html=1;strokeColor=none;labelPosition=center;verticalLabelPosition=bottom;verticalAlign=top;align=center;fillColor=#00188D;shape=mxgraph.mscae.enterprise.lock_unlocked" parent="-kNMf-nXk1HDoBk_w1mp-6" vertex="1">
          <mxGeometry x="160" y="65" width="18.5" height="25" as="geometry" />
        </mxCell>
        <mxCell id="Ft64ByeWx-oR6YxNVYhW-3" value="" style="sketch=0;aspect=fixed;pointerEvents=1;shadow=0;dashed=0;html=1;strokeColor=none;labelPosition=center;verticalLabelPosition=bottom;verticalAlign=top;align=center;fillColor=#00188D;shape=mxgraph.mscae.enterprise.lock_unlocked" parent="-kNMf-nXk1HDoBk_w1mp-6" vertex="1">
          <mxGeometry x="262.62" y="65" width="18.5" height="25" as="geometry" />
        </mxCell>
        <mxCell id="Ft64ByeWx-oR6YxNVYhW-6" value="" style="sketch=0;outlineConnect=0;fontColor=#232F3E;gradientColor=none;fillColor=#ED7100;strokeColor=none;dashed=0;verticalLabelPosition=bottom;verticalAlign=top;align=center;html=1;fontSize=12;fontStyle=0;aspect=fixed;pointerEvents=1;shape=mxgraph.aws4.auto_scaling2;" parent="-kNMf-nXk1HDoBk_w1mp-6" vertex="1">
          <mxGeometry x="272.62" y="90" width="48" height="48" as="geometry" />
        </mxCell>
        <mxCell id="YYC_tpVuf_u4fxhuyksU-20" value="&lt;b&gt;&lt;font style=&quot;font-size: 14px; color: rgb(153, 51, 255);&quot; face=&quot;Comic Sans MS&quot;&gt;Backend TG&lt;/font&gt;&lt;/b&gt;" style="text;html=1;align=center;verticalAlign=middle;resizable=0;points=[];autosize=1;strokeColor=none;fillColor=none;" parent="-kNMf-nXk1HDoBk_w1mp-6" vertex="1">
          <mxGeometry x="211.72000000000003" y="22.5" width="100" height="30" as="geometry" />
        </mxCell>
        <mxCell id="YYC_tpVuf_u4fxhuyksU-25" value="&lt;b&gt;http:8080&lt;/b&gt;" style="text;html=1;align=center;verticalAlign=middle;resizable=0;points=[];autosize=1;strokeColor=none;fillColor=none;" parent="-kNMf-nXk1HDoBk_w1mp-6" vertex="1">
          <mxGeometry x="180" y="90" width="80" height="30" as="geometry" />
        </mxCell>
        <mxCell id="-kNMf-nXk1HDoBk_w1mp-7" value="&lt;b&gt;Database Subnet&lt;/b&gt;" style="points=[[0,0],[0.25,0],[0.5,0],[0.75,0],[1,0],[1,0.25],[1,0.5],[1,0.75],[1,1],[0.75,1],[0.5,1],[0.25,1],[0,1],[0,0.75],[0,0.5],[0,0.25]];outlineConnect=0;gradientColor=#ea6b66;html=1;whiteSpace=wrap;fontSize=12;fontStyle=0;container=1;pointerEvents=0;collapsible=0;recursiveResize=0;shape=mxgraph.aws4.group;grIcon=mxgraph.aws4.group_security_group;grStroke=0;strokeColor=#b85450;fillColor=#f8cecc;verticalAlign=top;align=left;spacingLeft=30;dashed=0;" parent="-kNMf-nXk1HDoBk_w1mp-2" vertex="1">
          <mxGeometry x="77.38" y="600" width="445.25" height="160" as="geometry" />
        </mxCell>
        <mxCell id="-kNMf-nXk1HDoBk_w1mp-44" value="" style="outlineConnect=0;dashed=0;verticalLabelPosition=bottom;verticalAlign=top;align=center;html=1;shape=mxgraph.aws3.rds_db_instance;fillColor=#2E73B8;gradientColor=none;" parent="-kNMf-nXk1HDoBk_w1mp-7" vertex="1">
          <mxGeometry x="197.88" y="47" width="49.5" height="66" as="geometry" />
        </mxCell>
        <mxCell id="-kNMf-nXk1HDoBk_w1mp-45" value="" style="sketch=0;aspect=fixed;pointerEvents=1;shadow=0;dashed=0;html=1;strokeColor=none;labelPosition=center;verticalLabelPosition=bottom;verticalAlign=top;align=center;fillColor=#00188D;shape=mxgraph.mscae.enterprise.lock_unlocked" parent="-kNMf-nXk1HDoBk_w1mp-7" vertex="1">
          <mxGeometry x="176.72" y="62.5" width="25.9" height="35" as="geometry" />
        </mxCell>
        <mxCell id="YYC_tpVuf_u4fxhuyksU-26" value="&lt;b&gt;mysql:3306&lt;/b&gt;" style="text;html=1;align=center;verticalAlign=middle;resizable=0;points=[];autosize=1;strokeColor=none;fillColor=none;" parent="-kNMf-nXk1HDoBk_w1mp-7" vertex="1">
          <mxGeometry x="177.63" y="113" width="90" height="30" as="geometry" />
        </mxCell>
        <mxCell id="Ft64ByeWx-oR6YxNVYhW-4" style="edgeStyle=orthogonalEdgeStyle;rounded=0;orthogonalLoop=1;jettySize=auto;html=1;entryX=0.5;entryY=0;entryDx=0;entryDy=0;flowAnimation=1;strokeWidth=2;" parent="-kNMf-nXk1HDoBk_w1mp-2" source="-kNMf-nXk1HDoBk_w1mp-46" target="-kNMf-nXk1HDoBk_w1mp-57" edge="1">
          <mxGeometry relative="1" as="geometry" />
        </mxCell>
        <mxCell id="-kNMf-nXk1HDoBk_w1mp-46" value="" style="outlineConnect=0;dashed=0;verticalLabelPosition=bottom;verticalAlign=top;align=center;html=1;shape=mxgraph.aws3.application_load_balancer;fillColor=#F58536;gradientColor=none;" parent="-kNMf-nXk1HDoBk_w1mp-2" vertex="1">
          <mxGeometry x="272.38" y="280" width="50" height="50" as="geometry" />
        </mxCell>
        <mxCell id="-kNMf-nXk1HDoBk_w1mp-47" value="" style="sketch=0;aspect=fixed;pointerEvents=1;shadow=0;dashed=0;html=1;strokeColor=none;labelPosition=center;verticalLabelPosition=bottom;verticalAlign=top;align=center;fillColor=#00188D;shape=mxgraph.mscae.enterprise.lock_unlocked" parent="-kNMf-nXk1HDoBk_w1mp-2" vertex="1">
          <mxGeometry x="250" y="280" width="25.9" height="35" as="geometry" />
        </mxCell>
        <mxCell id="-kNMf-nXk1HDoBk_w1mp-48" value="" style="rounded=0;whiteSpace=wrap;html=1;" parent="-kNMf-nXk1HDoBk_w1mp-2" vertex="1">
          <mxGeometry x="390" y="120" width="120" height="60" as="geometry" />
        </mxCell>
        <mxCell id="-kNMf-nXk1HDoBk_w1mp-49" value="" style="points=[];aspect=fixed;html=1;align=center;shadow=0;dashed=0;fillColor=#FF6A00;strokeColor=none;shape=mxgraph.alibaba_cloud.bastionhost;" parent="-kNMf-nXk1HDoBk_w1mp-2" vertex="1">
          <mxGeometry x="400" y="130.05" width="50.4" height="39.900000000000006" as="geometry" />
        </mxCell>
        <mxCell id="-kNMf-nXk1HDoBk_w1mp-50" value="" style="html=1;strokeWidth=1;shadow=0;dashed=0;shape=mxgraph.ios7.misc.vpn;fillColor=#007AFF;strokeColor=none;buttonText=;strokeColor2=#222222;fontColor=#222222;fontSize=8;verticalLabelPosition=bottom;verticalAlign=top;align=center;sketch=0;" parent="-kNMf-nXk1HDoBk_w1mp-2" vertex="1">
          <mxGeometry x="460" y="135" width="40" height="35" as="geometry" />
        </mxCell>
        <mxCell id="-kNMf-nXk1HDoBk_w1mp-51" style="edgeStyle=orthogonalEdgeStyle;rounded=0;orthogonalLoop=1;jettySize=auto;html=1;entryX=1;entryY=0.5;entryDx=0;entryDy=0;entryPerimeter=0;flowAnimation=1;" parent="-kNMf-nXk1HDoBk_w1mp-2" source="-kNMf-nXk1HDoBk_w1mp-48" target="-kNMf-nXk1HDoBk_w1mp-46" edge="1">
          <mxGeometry relative="1" as="geometry">
            <Array as="points">
              <mxPoint x="450" y="305" />
            </Array>
          </mxGeometry>
        </mxCell>
        <mxCell id="-kNMf-nXk1HDoBk_w1mp-52" style="edgeStyle=orthogonalEdgeStyle;rounded=0;orthogonalLoop=1;jettySize=auto;html=1;entryX=1;entryY=0.5;entryDx=0;entryDy=0;entryPerimeter=0;flowAnimation=1;" parent="-kNMf-nXk1HDoBk_w1mp-2" source="-kNMf-nXk1HDoBk_w1mp-48" target="-kNMf-nXk1HDoBk_w1mp-44" edge="1">
          <mxGeometry relative="1" as="geometry">
            <Array as="points">
              <mxPoint x="450" y="680" />
            </Array>
          </mxGeometry>
        </mxCell>
        <mxCell id="-kNMf-nXk1HDoBk_w1mp-55" value="&lt;b&gt;&lt;font style=&quot;color: rgb(19, 56, 255);&quot; face=&quot;Comic Sans MS&quot;&gt;us-east-1a&lt;/font&gt;&lt;/b&gt;" style="text;html=1;align=center;verticalAlign=middle;resizable=0;points=[];autosize=1;strokeColor=none;fillColor=none;" parent="-kNMf-nXk1HDoBk_w1mp-2" vertex="1">
          <mxGeometry x="94.75" y="40" width="90" height="30" as="geometry" />
        </mxCell>
        <mxCell id="-kNMf-nXk1HDoBk_w1mp-56" value="&lt;b&gt;&lt;font style=&quot;color: rgb(19, 56, 255);&quot; face=&quot;Comic Sans MS&quot;&gt;us-east-1b&lt;/font&gt;&lt;/b&gt;" style="text;html=1;align=center;verticalAlign=middle;resizable=0;points=[];autosize=1;strokeColor=none;fillColor=none;" parent="-kNMf-nXk1HDoBk_w1mp-2" vertex="1">
          <mxGeometry x="445.4" y="40" width="90" height="30" as="geometry" />
        </mxCell>
        <mxCell id="Ft64ByeWx-oR6YxNVYhW-1" value="" style="outlineConnect=0;dashed=0;verticalLabelPosition=bottom;verticalAlign=top;align=center;html=1;shape=mxgraph.aws3.vpc_nat_gateway;fillColor=#F58534;gradientColor=none;" parent="-kNMf-nXk1HDoBk_w1mp-2" vertex="1">
          <mxGeometry x="90" y="110" width="52.62" height="40" as="geometry" />
        </mxCell>
        <mxCell id="Ft64ByeWx-oR6YxNVYhW-8" value="" style="endArrow=classic;html=1;rounded=0;exitX=0.5;exitY=1;exitDx=0;exitDy=0;flowAnimation=1;strokeWidth=2;" parent="-kNMf-nXk1HDoBk_w1mp-2" source="-kNMf-nXk1HDoBk_w1mp-57" target="-kNMf-nXk1HDoBk_w1mp-44" edge="1">
          <mxGeometry width="50" height="50" relative="1" as="geometry">
            <mxPoint x="500" y="410" as="sourcePoint" />
            <mxPoint x="550" y="360" as="targetPoint" />
          </mxGeometry>
        </mxCell>
        <mxCell id="Ft64ByeWx-oR6YxNVYhW-9" style="edgeStyle=orthogonalEdgeStyle;rounded=0;orthogonalLoop=1;jettySize=auto;html=1;entryX=1;entryY=0.5;entryDx=0;entryDy=0;entryPerimeter=0;flowAnimation=1;" parent="-kNMf-nXk1HDoBk_w1mp-2" source="-kNMf-nXk1HDoBk_w1mp-48" target="Ft64ByeWx-oR6YxNVYhW-3" edge="1">
          <mxGeometry relative="1" as="geometry">
            <Array as="points">
              <mxPoint x="450" y="438" />
              <mxPoint x="379" y="438" />
            </Array>
          </mxGeometry>
        </mxCell>
        <mxCell id="Fe1JVYztoIkSO5cmFbyE-1" value="" style="outlineConnect=0;dashed=0;verticalLabelPosition=bottom;verticalAlign=top;align=center;html=1;shape=mxgraph.aws3.application_load_balancer;fillColor=#F58536;gradientColor=none;" parent="-kNMf-nXk1HDoBk_w1mp-2" vertex="1">
          <mxGeometry x="272.37" y="20" width="50" height="50" as="geometry" />
        </mxCell>
        <mxCell id="-kNMf-nXk1HDoBk_w1mp-15" value="" style="sketch=0;outlineConnect=0;fontColor=#232F3E;gradientColor=none;strokeColor=#232F3E;fillColor=#ffffff;dashed=0;verticalLabelPosition=bottom;verticalAlign=top;align=center;html=1;fontSize=12;fontStyle=0;aspect=fixed;shape=mxgraph.aws4.resourceIcon;resIcon=mxgraph.aws4.internet_gateway;" parent="-kNMf-nXk1HDoBk_w1mp-2" vertex="1">
          <mxGeometry x="142.62" y="-30" width="60" height="60" as="geometry" />
        </mxCell>
        <mxCell id="YYC_tpVuf_u4fxhuyksU-8" style="edgeStyle=orthogonalEdgeStyle;rounded=0;orthogonalLoop=1;jettySize=auto;html=1;flowAnimation=1;" parent="-kNMf-nXk1HDoBk_w1mp-2" source="Fe1JVYztoIkSO5cmFbyE-1" edge="1">
          <mxGeometry relative="1" as="geometry">
            <mxPoint x="297" y="120" as="targetPoint" />
          </mxGeometry>
        </mxCell>
        <mxCell id="YYC_tpVuf_u4fxhuyksU-10" value="" style="endArrow=classic;html=1;rounded=0;exitX=0.5;exitY=1;exitDx=0;exitDy=0;flowAnimation=1;" parent="-kNMf-nXk1HDoBk_w1mp-2" source="YYC_tpVuf_u4fxhuyksU-1" target="-kNMf-nXk1HDoBk_w1mp-46" edge="1">
          <mxGeometry width="50" height="50" relative="1" as="geometry">
            <mxPoint x="500" y="340" as="sourcePoint" />
            <mxPoint x="550" y="290" as="targetPoint" />
          </mxGeometry>
        </mxCell>
        <mxCell id="YYC_tpVuf_u4fxhuyksU-18" value="&lt;b&gt;&lt;font face=&quot;Comic Sans MS&quot; style=&quot;font-size: 14px; color: rgb(153, 0, 0);&quot;&gt;Web ALB&lt;/font&gt;&lt;/b&gt;" style="text;html=1;align=center;verticalAlign=middle;resizable=0;points=[];autosize=1;strokeColor=none;fillColor=none;" parent="-kNMf-nXk1HDoBk_w1mp-2" vertex="1">
          <mxGeometry x="305" y="10" width="90" height="30" as="geometry" />
        </mxCell>
        <mxCell id="YYC_tpVuf_u4fxhuyksU-19" value="&lt;b&gt;&lt;font style=&quot;font-size: 14px; color: rgb(255, 0, 128);&quot; face=&quot;Comic Sans MS&quot;&gt;APP ALB&lt;/font&gt;&lt;/b&gt;" style="text;html=1;align=center;verticalAlign=middle;resizable=0;points=[];autosize=1;strokeColor=none;fillColor=none;" parent="-kNMf-nXk1HDoBk_w1mp-2" vertex="1">
          <mxGeometry x="290" y="250" width="80" height="30" as="geometry" />
        </mxCell>
        <mxCell id="YYC_tpVuf_u4fxhuyksU-21" value="" style="sketch=0;aspect=fixed;pointerEvents=1;shadow=0;dashed=0;html=1;strokeColor=none;labelPosition=center;verticalLabelPosition=bottom;verticalAlign=top;align=center;fillColor=#00188D;shape=mxgraph.mscae.enterprise.lock_unlocked" parent="-kNMf-nXk1HDoBk_w1mp-2" vertex="1">
          <mxGeometry x="257.4" y="30" width="18.5" height="25" as="geometry" />
        </mxCell>
        <mxCell id="YYC_tpVuf_u4fxhuyksU-22" value="&lt;b&gt;https:443&lt;/b&gt;" style="text;html=1;align=center;verticalAlign=middle;resizable=0;points=[];autosize=1;strokeColor=none;fillColor=none;" parent="-kNMf-nXk1HDoBk_w1mp-2" vertex="1">
          <mxGeometry x="290" y="55" width="80" height="30" as="geometry" />
        </mxCell>
        <mxCell id="YYC_tpVuf_u4fxhuyksU-24" value="&lt;b&gt;http:80&lt;/b&gt;" style="text;html=1;align=center;verticalAlign=middle;resizable=0;points=[];autosize=1;strokeColor=none;fillColor=none;" parent="-kNMf-nXk1HDoBk_w1mp-2" vertex="1">
          <mxGeometry x="245" y="250" width="60" height="30" as="geometry" />
        </mxCell>
        <mxCell id="-kNMf-nXk1HDoBk_w1mp-8" value="" style="shape=table;startSize=0;container=1;collapsible=0;childLayout=tableLayout;" parent="-kNMf-nXk1HDoBk_w1mp-1" vertex="1">
          <mxGeometry x="660" y="200" width="140" height="75" as="geometry" />
        </mxCell>
        <mxCell id="-kNMf-nXk1HDoBk_w1mp-9" value="" style="shape=tableRow;horizontal=0;startSize=0;swimlaneHead=0;swimlaneBody=0;strokeColor=inherit;top=0;left=0;bottom=0;right=0;collapsible=0;dropTarget=0;fillColor=none;points=[[0,0.5],[1,0.5]];portConstraint=eastwest;" parent="-kNMf-nXk1HDoBk_w1mp-8" vertex="1">
          <mxGeometry width="140" height="25" as="geometry" />
        </mxCell>
        <mxCell id="-kNMf-nXk1HDoBk_w1mp-10" value="&lt;b&gt;CIDR&lt;/b&gt;" style="shape=partialRectangle;html=1;whiteSpace=wrap;connectable=0;strokeColor=#6c8ebf;overflow=hidden;fillColor=#dae8fc;top=0;left=0;bottom=0;right=0;pointerEvents=1;gradientColor=#7ea6e0;" parent="-kNMf-nXk1HDoBk_w1mp-9" vertex="1">
          <mxGeometry width="70" height="25" as="geometry">
            <mxRectangle width="70" height="25" as="alternateBounds" />
          </mxGeometry>
        </mxCell>
        <mxCell id="-kNMf-nXk1HDoBk_w1mp-11" value="&lt;b&gt;Destination&lt;/b&gt;" style="shape=partialRectangle;html=1;whiteSpace=wrap;connectable=0;strokeColor=#6c8ebf;overflow=hidden;fillColor=#dae8fc;top=0;left=0;bottom=0;right=0;pointerEvents=1;gradientColor=#7ea6e0;" parent="-kNMf-nXk1HDoBk_w1mp-9" vertex="1">
          <mxGeometry x="70" width="70" height="25" as="geometry">
            <mxRectangle width="70" height="25" as="alternateBounds" />
          </mxGeometry>
        </mxCell>
        <mxCell id="-kNMf-nXk1HDoBk_w1mp-12" value="" style="shape=tableRow;horizontal=0;startSize=0;swimlaneHead=0;swimlaneBody=0;strokeColor=inherit;top=0;left=0;bottom=0;right=0;collapsible=0;dropTarget=0;fillColor=none;points=[[0,0.5],[1,0.5]];portConstraint=eastwest;" parent="-kNMf-nXk1HDoBk_w1mp-8" vertex="1">
          <mxGeometry y="25" width="140" height="25" as="geometry" />
        </mxCell>
        <mxCell id="-kNMf-nXk1HDoBk_w1mp-13" value="&lt;b&gt;0.0.0.0/0&lt;/b&gt;" style="shape=partialRectangle;html=1;whiteSpace=wrap;connectable=0;strokeColor=#666666;overflow=hidden;fillColor=#f5f5f5;top=0;left=0;bottom=0;right=0;pointerEvents=1;gradientColor=#b3b3b3;" parent="-kNMf-nXk1HDoBk_w1mp-12" vertex="1">
          <mxGeometry width="70" height="25" as="geometry">
            <mxRectangle width="70" height="25" as="alternateBounds" />
          </mxGeometry>
        </mxCell>
        <mxCell id="-kNMf-nXk1HDoBk_w1mp-14" value="&lt;b&gt;IGW&lt;/b&gt;" style="shape=partialRectangle;html=1;whiteSpace=wrap;connectable=0;strokeColor=#666666;overflow=hidden;fillColor=#f5f5f5;top=0;left=0;bottom=0;right=0;pointerEvents=1;gradientColor=#b3b3b3;" parent="-kNMf-nXk1HDoBk_w1mp-12" vertex="1">
          <mxGeometry x="70" width="70" height="25" as="geometry">
            <mxRectangle width="70" height="25" as="alternateBounds" />
          </mxGeometry>
        </mxCell>
        <mxCell id="-kNMf-nXk1HDoBk_w1mp-32" style="shape=tableRow;horizontal=0;startSize=0;swimlaneHead=0;swimlaneBody=0;strokeColor=inherit;top=0;left=0;bottom=0;right=0;collapsible=0;dropTarget=0;fillColor=none;points=[[0,0.5],[1,0.5]];portConstraint=eastwest;" parent="-kNMf-nXk1HDoBk_w1mp-8" vertex="1">
          <mxGeometry y="50" width="140" height="25" as="geometry" />
        </mxCell>
        <mxCell id="-kNMf-nXk1HDoBk_w1mp-33" value="&lt;b&gt;10.0.0.0/16&lt;/b&gt;" style="shape=partialRectangle;html=1;whiteSpace=wrap;connectable=0;strokeColor=#666666;overflow=hidden;fillColor=#f5f5f5;top=0;left=0;bottom=0;right=0;pointerEvents=1;gradientColor=#b3b3b3;" parent="-kNMf-nXk1HDoBk_w1mp-32" vertex="1">
          <mxGeometry width="70" height="25" as="geometry">
            <mxRectangle width="70" height="25" as="alternateBounds" />
          </mxGeometry>
        </mxCell>
        <mxCell id="-kNMf-nXk1HDoBk_w1mp-34" value="&lt;b&gt;local&lt;/b&gt;" style="shape=partialRectangle;html=1;whiteSpace=wrap;connectable=0;strokeColor=#666666;overflow=hidden;fillColor=#f5f5f5;top=0;left=0;bottom=0;right=0;pointerEvents=1;gradientColor=#b3b3b3;" parent="-kNMf-nXk1HDoBk_w1mp-32" vertex="1">
          <mxGeometry x="70" width="70" height="25" as="geometry">
            <mxRectangle width="70" height="25" as="alternateBounds" />
          </mxGeometry>
        </mxCell>
        <mxCell id="-kNMf-nXk1HDoBk_w1mp-18" value="" style="shape=table;startSize=0;container=1;collapsible=0;childLayout=tableLayout;" parent="-kNMf-nXk1HDoBk_w1mp-1" vertex="1">
          <mxGeometry x="660" y="480" width="140" height="75" as="geometry" />
        </mxCell>
        <mxCell id="-kNMf-nXk1HDoBk_w1mp-19" value="" style="shape=tableRow;horizontal=0;startSize=0;swimlaneHead=0;swimlaneBody=0;strokeColor=inherit;top=0;left=0;bottom=0;right=0;collapsible=0;dropTarget=0;fillColor=none;points=[[0,0.5],[1,0.5]];portConstraint=eastwest;" parent="-kNMf-nXk1HDoBk_w1mp-18" vertex="1">
          <mxGeometry width="140" height="25" as="geometry" />
        </mxCell>
        <mxCell id="-kNMf-nXk1HDoBk_w1mp-20" value="&lt;b&gt;CIDR&lt;/b&gt;" style="shape=partialRectangle;html=1;whiteSpace=wrap;connectable=0;strokeColor=#6c8ebf;overflow=hidden;fillColor=#dae8fc;top=0;left=0;bottom=0;right=0;pointerEvents=1;gradientColor=#7ea6e0;" parent="-kNMf-nXk1HDoBk_w1mp-19" vertex="1">
          <mxGeometry width="70" height="25" as="geometry">
            <mxRectangle width="70" height="25" as="alternateBounds" />
          </mxGeometry>
        </mxCell>
        <mxCell id="-kNMf-nXk1HDoBk_w1mp-21" value="&lt;b&gt;Destination&lt;/b&gt;" style="shape=partialRectangle;html=1;whiteSpace=wrap;connectable=0;strokeColor=#6c8ebf;overflow=hidden;fillColor=#dae8fc;top=0;left=0;bottom=0;right=0;pointerEvents=1;gradientColor=#7ea6e0;" parent="-kNMf-nXk1HDoBk_w1mp-19" vertex="1">
          <mxGeometry x="70" width="70" height="25" as="geometry">
            <mxRectangle width="70" height="25" as="alternateBounds" />
          </mxGeometry>
        </mxCell>
        <mxCell id="-kNMf-nXk1HDoBk_w1mp-22" value="" style="shape=tableRow;horizontal=0;startSize=0;swimlaneHead=0;swimlaneBody=0;strokeColor=inherit;top=0;left=0;bottom=0;right=0;collapsible=0;dropTarget=0;fillColor=none;points=[[0,0.5],[1,0.5]];portConstraint=eastwest;" parent="-kNMf-nXk1HDoBk_w1mp-18" vertex="1">
          <mxGeometry y="25" width="140" height="25" as="geometry" />
        </mxCell>
        <mxCell id="-kNMf-nXk1HDoBk_w1mp-23" value="&lt;b&gt;0.0.0.0/0&lt;/b&gt;" style="shape=partialRectangle;html=1;whiteSpace=wrap;connectable=0;strokeColor=#666666;overflow=hidden;fillColor=#f5f5f5;top=0;left=0;bottom=0;right=0;pointerEvents=1;gradientColor=#b3b3b3;" parent="-kNMf-nXk1HDoBk_w1mp-22" vertex="1">
          <mxGeometry width="70" height="25" as="geometry">
            <mxRectangle width="70" height="25" as="alternateBounds" />
          </mxGeometry>
        </mxCell>
        <mxCell id="-kNMf-nXk1HDoBk_w1mp-24" value="&lt;b&gt;NAT&lt;/b&gt;" style="shape=partialRectangle;html=1;whiteSpace=wrap;connectable=0;strokeColor=#666666;overflow=hidden;fillColor=#f5f5f5;top=0;left=0;bottom=0;right=0;pointerEvents=1;gradientColor=#b3b3b3;" parent="-kNMf-nXk1HDoBk_w1mp-22" vertex="1">
          <mxGeometry x="70" width="70" height="25" as="geometry">
            <mxRectangle width="70" height="25" as="alternateBounds" />
          </mxGeometry>
        </mxCell>
        <mxCell id="-kNMf-nXk1HDoBk_w1mp-38" style="shape=tableRow;horizontal=0;startSize=0;swimlaneHead=0;swimlaneBody=0;strokeColor=inherit;top=0;left=0;bottom=0;right=0;collapsible=0;dropTarget=0;fillColor=none;points=[[0,0.5],[1,0.5]];portConstraint=eastwest;" parent="-kNMf-nXk1HDoBk_w1mp-18" vertex="1">
          <mxGeometry y="50" width="140" height="25" as="geometry" />
        </mxCell>
        <mxCell id="-kNMf-nXk1HDoBk_w1mp-39" value="&lt;b&gt;10.0.0.0/16&lt;/b&gt;" style="shape=partialRectangle;html=1;whiteSpace=wrap;connectable=0;strokeColor=#666666;overflow=hidden;fillColor=#f5f5f5;top=0;left=0;bottom=0;right=0;pointerEvents=1;gradientColor=#b3b3b3;" parent="-kNMf-nXk1HDoBk_w1mp-38" vertex="1">
          <mxGeometry width="70" height="25" as="geometry">
            <mxRectangle width="70" height="25" as="alternateBounds" />
          </mxGeometry>
        </mxCell>
        <mxCell id="-kNMf-nXk1HDoBk_w1mp-40" value="&lt;b&gt;local&lt;/b&gt;" style="shape=partialRectangle;html=1;whiteSpace=wrap;connectable=0;strokeColor=#666666;overflow=hidden;fillColor=#f5f5f5;top=0;left=0;bottom=0;right=0;pointerEvents=1;gradientColor=#b3b3b3;" parent="-kNMf-nXk1HDoBk_w1mp-38" vertex="1">
          <mxGeometry x="70" width="70" height="25" as="geometry">
            <mxRectangle width="70" height="25" as="alternateBounds" />
          </mxGeometry>
        </mxCell>
        <mxCell id="-kNMf-nXk1HDoBk_w1mp-25" value="" style="shape=table;startSize=0;container=1;collapsible=0;childLayout=tableLayout;" parent="-kNMf-nXk1HDoBk_w1mp-1" vertex="1">
          <mxGeometry x="660" y="720" width="140" height="75" as="geometry" />
        </mxCell>
        <mxCell id="-kNMf-nXk1HDoBk_w1mp-26" value="" style="shape=tableRow;horizontal=0;startSize=0;swimlaneHead=0;swimlaneBody=0;strokeColor=inherit;top=0;left=0;bottom=0;right=0;collapsible=0;dropTarget=0;fillColor=none;points=[[0,0.5],[1,0.5]];portConstraint=eastwest;" parent="-kNMf-nXk1HDoBk_w1mp-25" vertex="1">
          <mxGeometry width="140" height="25" as="geometry" />
        </mxCell>
        <mxCell id="-kNMf-nXk1HDoBk_w1mp-27" value="&lt;b&gt;CIDR&lt;/b&gt;" style="shape=partialRectangle;html=1;whiteSpace=wrap;connectable=0;strokeColor=#6c8ebf;overflow=hidden;fillColor=#dae8fc;top=0;left=0;bottom=0;right=0;pointerEvents=1;gradientColor=#7ea6e0;" parent="-kNMf-nXk1HDoBk_w1mp-26" vertex="1">
          <mxGeometry width="70" height="25" as="geometry">
            <mxRectangle width="70" height="25" as="alternateBounds" />
          </mxGeometry>
        </mxCell>
        <mxCell id="-kNMf-nXk1HDoBk_w1mp-28" value="&lt;b&gt;Destination&lt;/b&gt;" style="shape=partialRectangle;html=1;whiteSpace=wrap;connectable=0;strokeColor=#6c8ebf;overflow=hidden;fillColor=#dae8fc;top=0;left=0;bottom=0;right=0;pointerEvents=1;gradientColor=#7ea6e0;" parent="-kNMf-nXk1HDoBk_w1mp-26" vertex="1">
          <mxGeometry x="70" width="70" height="25" as="geometry">
            <mxRectangle width="70" height="25" as="alternateBounds" />
          </mxGeometry>
        </mxCell>
        <mxCell id="-kNMf-nXk1HDoBk_w1mp-29" value="" style="shape=tableRow;horizontal=0;startSize=0;swimlaneHead=0;swimlaneBody=0;strokeColor=inherit;top=0;left=0;bottom=0;right=0;collapsible=0;dropTarget=0;fillColor=none;points=[[0,0.5],[1,0.5]];portConstraint=eastwest;" parent="-kNMf-nXk1HDoBk_w1mp-25" vertex="1">
          <mxGeometry y="25" width="140" height="25" as="geometry" />
        </mxCell>
        <mxCell id="-kNMf-nXk1HDoBk_w1mp-30" value="&lt;b&gt;0.0.0.0/0&lt;/b&gt;" style="shape=partialRectangle;html=1;whiteSpace=wrap;connectable=0;strokeColor=#666666;overflow=hidden;fillColor=#f5f5f5;top=0;left=0;bottom=0;right=0;pointerEvents=1;gradientColor=#b3b3b3;" parent="-kNMf-nXk1HDoBk_w1mp-29" vertex="1">
          <mxGeometry width="70" height="25" as="geometry">
            <mxRectangle width="70" height="25" as="alternateBounds" />
          </mxGeometry>
        </mxCell>
        <mxCell id="-kNMf-nXk1HDoBk_w1mp-31" value="&lt;b&gt;NAT&lt;/b&gt;" style="shape=partialRectangle;html=1;whiteSpace=wrap;connectable=0;strokeColor=#666666;overflow=hidden;fillColor=#f5f5f5;top=0;left=0;bottom=0;right=0;pointerEvents=1;gradientColor=#b3b3b3;" parent="-kNMf-nXk1HDoBk_w1mp-29" vertex="1">
          <mxGeometry x="70" width="70" height="25" as="geometry">
            <mxRectangle width="70" height="25" as="alternateBounds" />
          </mxGeometry>
        </mxCell>
        <mxCell id="-kNMf-nXk1HDoBk_w1mp-41" style="shape=tableRow;horizontal=0;startSize=0;swimlaneHead=0;swimlaneBody=0;strokeColor=inherit;top=0;left=0;bottom=0;right=0;collapsible=0;dropTarget=0;fillColor=none;points=[[0,0.5],[1,0.5]];portConstraint=eastwest;" parent="-kNMf-nXk1HDoBk_w1mp-25" vertex="1">
          <mxGeometry y="50" width="140" height="25" as="geometry" />
        </mxCell>
        <mxCell id="-kNMf-nXk1HDoBk_w1mp-42" value="&lt;b&gt;10.0.0.0/16&lt;/b&gt;" style="shape=partialRectangle;html=1;whiteSpace=wrap;connectable=0;strokeColor=#666666;overflow=hidden;fillColor=#f5f5f5;top=0;left=0;bottom=0;right=0;pointerEvents=1;gradientColor=#b3b3b3;" parent="-kNMf-nXk1HDoBk_w1mp-41" vertex="1">
          <mxGeometry width="70" height="25" as="geometry">
            <mxRectangle width="70" height="25" as="alternateBounds" />
          </mxGeometry>
        </mxCell>
        <mxCell id="-kNMf-nXk1HDoBk_w1mp-43" value="&lt;b&gt;local&lt;/b&gt;" style="shape=partialRectangle;html=1;whiteSpace=wrap;connectable=0;strokeColor=#666666;overflow=hidden;fillColor=#f5f5f5;top=0;left=0;bottom=0;right=0;pointerEvents=1;gradientColor=#b3b3b3;" parent="-kNMf-nXk1HDoBk_w1mp-41" vertex="1">
          <mxGeometry x="70" width="70" height="25" as="geometry">
            <mxRectangle width="70" height="25" as="alternateBounds" />
          </mxGeometry>
        </mxCell>
        <mxCell id="lfr90MG_O4O85OSbpimu-3" style="edgeStyle=orthogonalEdgeStyle;rounded=0;orthogonalLoop=1;jettySize=auto;html=1;flowAnimation=1;" edge="1" parent="-kNMf-nXk1HDoBk_w1mp-1" source="YYC_tpVuf_u4fxhuyksU-11" target="lfr90MG_O4O85OSbpimu-1">
          <mxGeometry relative="1" as="geometry" />
        </mxCell>
        <mxCell id="YYC_tpVuf_u4fxhuyksU-11" value="" style="sketch=0;points=[[0,0,0],[0.25,0,0],[0.5,0,0],[0.75,0,0],[1,0,0],[0,1,0],[0.25,1,0],[0.5,1,0],[0.75,1,0],[1,1,0],[0,0.25,0],[0,0.5,0],[0,0.75,0],[1,0.25,0],[1,0.5,0],[1,0.75,0]];outlineConnect=0;fontColor=#232F3E;fillColor=#8C4FFF;strokeColor=#ffffff;dashed=0;verticalLabelPosition=bottom;verticalAlign=top;align=center;html=1;fontSize=12;fontStyle=0;aspect=fixed;shape=mxgraph.aws4.resourceIcon;resIcon=mxgraph.aws4.route_53;" parent="-kNMf-nXk1HDoBk_w1mp-1" vertex="1">
          <mxGeometry x="215" y="30" width="50" height="50" as="geometry" />
        </mxCell>
        <mxCell id="YYC_tpVuf_u4fxhuyksU-15" style="edgeStyle=orthogonalEdgeStyle;rounded=0;orthogonalLoop=1;jettySize=auto;html=1;entryX=0.5;entryY=0;entryDx=0;entryDy=0;entryPerimeter=0;flowAnimation=1;strokeWidth=2;" parent="-kNMf-nXk1HDoBk_w1mp-1" source="lfr90MG_O4O85OSbpimu-1" target="Fe1JVYztoIkSO5cmFbyE-1" edge="1">
          <mxGeometry relative="1" as="geometry" />
        </mxCell>
        <mxCell id="lfr90MG_O4O85OSbpimu-1" value="" style="sketch=0;points=[[0,0,0],[0.25,0,0],[0.5,0,0],[0.75,0,0],[1,0,0],[0,1,0],[0.25,1,0],[0.5,1,0],[0.75,1,0],[1,1,0],[0,0.25,0],[0,0.5,0],[0,0.75,0],[1,0.25,0],[1,0.5,0],[1,0.75,0]];outlineConnect=0;fontColor=#232F3E;fillColor=#8C4FFF;strokeColor=#ffffff;dashed=0;verticalLabelPosition=bottom;verticalAlign=top;align=center;html=1;fontSize=12;fontStyle=0;aspect=fixed;shape=mxgraph.aws4.resourceIcon;resIcon=mxgraph.aws4.cloudfront;" vertex="1" parent="-kNMf-nXk1HDoBk_w1mp-1">
          <mxGeometry x="314.87" y="32.5" width="45" height="45" as="geometry" />
        </mxCell>
        <mxCell id="-kNMf-nXk1HDoBk_w1mp-54" style="edgeStyle=orthogonalEdgeStyle;rounded=0;orthogonalLoop=1;jettySize=auto;html=1;flowAnimation=1;" parent="1" source="-kNMf-nXk1HDoBk_w1mp-53" target="-kNMf-nXk1HDoBk_w1mp-48" edge="1">
          <mxGeometry relative="1" as="geometry" />
        </mxCell>
        <mxCell id="-kNMf-nXk1HDoBk_w1mp-53" value="" style="sketch=0;pointerEvents=1;shadow=0;dashed=0;html=1;strokeColor=#b85450;labelPosition=center;verticalLabelPosition=bottom;verticalAlign=top;align=center;fillColor=#f8cecc;shape=mxgraph.mscae.system_center.admin_console;gradientColor=#ea6b66;" parent="1" vertex="1">
          <mxGeometry x="530" y="-100" width="80" height="60" as="geometry" />
        </mxCell>
        <mxCell id="YYC_tpVuf_u4fxhuyksU-12" value="" style="html=1;verticalLabelPosition=bottom;align=center;labelBackgroundColor=#ffffff;verticalAlign=top;strokeWidth=2;strokeColor=#0080F0;shadow=0;dashed=0;shape=mxgraph.ios7.icons.user;" parent="1" vertex="1">
          <mxGeometry x="290" y="-110" width="60" height="60" as="geometry" />
        </mxCell>
        <mxCell id="YYC_tpVuf_u4fxhuyksU-13" style="edgeStyle=orthogonalEdgeStyle;rounded=0;orthogonalLoop=1;jettySize=auto;html=1;entryX=0.5;entryY=0;entryDx=0;entryDy=0;entryPerimeter=0;flowAnimation=1;strokeWidth=2;" parent="1" source="YYC_tpVuf_u4fxhuyksU-12" target="YYC_tpVuf_u4fxhuyksU-11" edge="1">
          <mxGeometry relative="1" as="geometry" />
        </mxCell>
        <mxCell id="YYC_tpVuf_u4fxhuyksU-14" value="&lt;b&gt;&lt;font style=&quot;font-size: 14px;&quot; face=&quot;Comic Sans MS&quot;&gt;https://expense-cdn.daws82s.online&lt;/font&gt;&lt;/b&gt;" style="text;html=1;align=center;verticalAlign=middle;resizable=0;points=[];autosize=1;strokeColor=none;fillColor=none;" parent="1" vertex="1">
          <mxGeometry x="150" y="-50" width="270" height="30" as="geometry" />
        </mxCell>
      </root>
    </mxGraphModel>
  </diagram>
</mxfile>
